<?xml version="1.0" encoding="utf-8" standalone="no"?>
<!DOCTYPE svg PUBLIC "-//W3C//DTD SVG 1.1//EN"
  "http://www.w3.org/Graphics/SVG/1.1/DTD/svg11.dtd">
<svg xmlns:xlink="http://www.w3.org/1999/xlink" width="864pt" height="576pt" viewBox="0 0 864 576" xmlns="http://www.w3.org/2000/svg" version="1.1">
 <metadata>
  <rdf:RDF xmlns:dc="http://purl.org/dc/elements/1.1/" xmlns:cc="http://creativecommons.org/ns#" xmlns:rdf="http://www.w3.org/1999/02/22-rdf-syntax-ns#">
   <cc:Work>
    <dc:type rdf:resource="http://purl.org/dc/dcmitype/StillImage"/>
    <dc:date>2025-06-20T21:09:11.400135</dc:date>
    <dc:format>image/svg+xml</dc:format>
    <dc:creator>
     <cc:Agent>
      <dc:title>Matplotlib v3.6.3, https://matplotlib.org/</dc:title>
     </cc:Agent>
    </dc:creator>
   </cc:Work>
  </rdf:RDF>
 </metadata>
 <defs>
  <style type="text/css">*{stroke-linejoin: round; stroke-linecap: butt}</style>
 </defs>
 <g id="figure_1">
  <g id="patch_1">
   <path d="M 0 576 
L 864 576 
L 864 0 
L 0 0 
z
" style="fill: #ffffff"/>
  </g>
  <g id="axes_1">
   <g id="patch_2">
    <path d="M 432.240387 270.90232 
Q 602.001749 318.666518 770.686865 366.127902 
" clip-path="url(#p986cc358d9)" style="fill: none; stroke: #000000; stroke-linecap: round"/>
    <path d="M 764.069258 360.110654 
L 770.686865 366.127902 
L 761.902502 367.811639 
" clip-path="url(#p986cc358d9)" style="fill: none; stroke: #000000; stroke-linecap: round"/>
   </g>
   <g id="patch_3">
    <path d="M 418.641723 275.432744 
Q 328.765802 392.823316 239.569539 509.326158 
" clip-path="url(#p986cc358d9)" style="fill: none; stroke: #000000; stroke-linecap: round"/>
    <path d="M 247.60882 505.405702 
L 239.569539 509.326158 
L 241.256743 500.54246 
" clip-path="url(#p986cc358d9)" style="fill: none; stroke: #000000; stroke-linecap: round"/>
   </g>
   <g id="patch_4">
    <path d="M 416.006865 265.003131 
Q 253.902723 192.063228 92.818157 119.58209 
" clip-path="url(#p986cc358d9)" style="fill: none; stroke: #000000; stroke-linecap: round"/>
    <path d="M 98.472318 126.512491 
L 92.818157 119.58209 
L 101.754975 119.217002 
" clip-path="url(#p986cc358d9)" style="fill: none; stroke: #000000; stroke-linecap: round"/>
   </g>
   <g id="patch_5">
    <path d="M 430.079165 262.488803 
Q 530.54147 163.735433 630.206453 65.765822 
" clip-path="url(#p986cc358d9)" style="fill: none; stroke: #000000; stroke-linecap: round"/>
    <path d="M 621.697221 68.521359 
L 630.206453 65.765822 
L 627.305343 74.226529 
" clip-path="url(#p986cc358d9)" style="fill: none; stroke: #000000; stroke-linecap: round"/>
   </g>
   <g id="PathCollection_1">
    <defs>
     <path id="m3b0d564e8a" d="M 0 41.833001 
C 11.094242 41.833001 21.735585 37.425212 29.580399 29.580399 
C 37.425212 21.735585 41.833001 11.094242 41.833001 0 
C 41.833001 -11.094242 37.425212 -21.735585 29.580399 -29.580399 
C 21.735585 -37.425212 11.094242 -41.833001 0 -41.833001 
C -11.094242 -41.833001 -21.735585 -37.425212 -29.580399 -29.580399 
C -37.425212 -21.735585 -41.833001 -11.094242 -41.833001 0 
C -41.833001 11.094242 -37.425212 21.735585 -29.580399 29.580399 
C -21.735585 37.425212 -11.094242 41.833001 0 41.833001 
z
" style="stroke: #cce5ff"/>
    </defs>
    <g clip-path="url(#p986cc358d9)">
     <use xlink:href="#m3b0d564e8a" x="423.90569" y="268.557263" style="fill: #cce5ff; stroke: #cce5ff"/>
     <use xlink:href="#m3b0d564e8a" x="780.099174" y="368.776157" style="fill: #cce5ff; stroke: #cce5ff"/>
     <use xlink:href="#m3b0d564e8a" x="233.624734" y="517.090909" style="fill: #cce5ff; stroke: #cce5ff"/>
     <use xlink:href="#m3b0d564e8a" x="83.900826" y="115.569674" style="fill: #cce5ff; stroke: #cce5ff"/>
     <use xlink:href="#m3b0d564e8a" x="637.181841" y="58.909091" style="fill: #cce5ff; stroke: #cce5ff"/>
    </g>
   </g>
   <g id="text_1">
    <g clip-path="url(#p986cc358d9)">
     <!-- users -->
     <g transform="translate(413.097565 248.146638) scale(0.08 -0.08)">
      <defs>
       <path id="DejaVuSans-75" d="M 544 1381 
L 544 3500 
L 1119 3500 
L 1119 1403 
Q 1119 906 1312 657 
Q 1506 409 1894 409 
Q 2359 409 2629 706 
Q 2900 1003 2900 1516 
L 2900 3500 
L 3475 3500 
L 3475 0 
L 2900 0 
L 2900 538 
Q 2691 219 2414 64 
Q 2138 -91 1772 -91 
Q 1169 -91 856 284 
Q 544 659 544 1381 
z
M 1991 3584 
L 1991 3584 
z
" transform="scale(0.015625)"/>
       <path id="DejaVuSans-73" d="M 2834 3397 
L 2834 2853 
Q 2591 2978 2328 3040 
Q 2066 3103 1784 3103 
Q 1356 3103 1142 2972 
Q 928 2841 928 2578 
Q 928 2378 1081 2264 
Q 1234 2150 1697 2047 
L 1894 2003 
Q 2506 1872 2764 1633 
Q 3022 1394 3022 966 
Q 3022 478 2636 193 
Q 2250 -91 1575 -91 
Q 1294 -91 989 -36 
Q 684 19 347 128 
L 347 722 
Q 666 556 975 473 
Q 1284 391 1588 391 
Q 1994 391 2212 530 
Q 2431 669 2431 922 
Q 2431 1156 2273 1281 
Q 2116 1406 1581 1522 
L 1381 1569 
Q 847 1681 609 1914 
Q 372 2147 372 2553 
Q 372 3047 722 3315 
Q 1072 3584 1716 3584 
Q 2034 3584 2315 3537 
Q 2597 3491 2834 3397 
z
" transform="scale(0.015625)"/>
       <path id="DejaVuSans-65" d="M 3597 1894 
L 3597 1613 
L 953 1613 
Q 991 1019 1311 708 
Q 1631 397 2203 397 
Q 2534 397 2845 478 
Q 3156 559 3463 722 
L 3463 178 
Q 3153 47 2828 -22 
Q 2503 -91 2169 -91 
Q 1331 -91 842 396 
Q 353 884 353 1716 
Q 353 2575 817 3079 
Q 1281 3584 2069 3584 
Q 2775 3584 3186 3129 
Q 3597 2675 3597 1894 
z
M 3022 2063 
Q 3016 2534 2758 2815 
Q 2500 3097 2075 3097 
Q 1594 3097 1305 2825 
Q 1016 2553 972 2059 
L 3022 2063 
z
" transform="scale(0.015625)"/>
       <path id="DejaVuSans-72" d="M 2631 2963 
Q 2534 3019 2420 3045 
Q 2306 3072 2169 3072 
Q 1681 3072 1420 2755 
Q 1159 2438 1159 1844 
L 1159 0 
L 581 0 
L 581 3500 
L 1159 3500 
L 1159 2956 
Q 1341 3275 1631 3429 
Q 1922 3584 2338 3584 
Q 2397 3584 2469 3576 
Q 2541 3569 2628 3553 
L 2631 2963 
z
" transform="scale(0.015625)"/>
      </defs>
      <use xlink:href="#DejaVuSans-75"/>
      <use xlink:href="#DejaVuSans-73" x="63.378906"/>
      <use xlink:href="#DejaVuSans-65" x="115.478516"/>
      <use xlink:href="#DejaVuSans-72" x="177.001953"/>
      <use xlink:href="#DejaVuSans-73" x="218.115234"/>
     </g>
    </g>
    <g clip-path="url(#p986cc358d9)">
     <!-- user_id -->
     <g transform="translate(409.53069 257.104888) scale(0.08 -0.08)">
      <defs>
       <path id="DejaVuSans-5f" d="M 3263 -1063 
L 3263 -1509 
L -63 -1509 
L -63 -1063 
L 3263 -1063 
z
" transform="scale(0.015625)"/>
       <path id="DejaVuSans-69" d="M 603 3500 
L 1178 3500 
L 1178 0 
L 603 0 
L 603 3500 
z
M 603 4863 
L 1178 4863 
L 1178 4134 
L 603 4134 
L 603 4863 
z
" transform="scale(0.015625)"/>
       <path id="DejaVuSans-64" d="M 2906 2969 
L 2906 4863 
L 3481 4863 
L 3481 0 
L 2906 0 
L 2906 525 
Q 2725 213 2448 61 
Q 2172 -91 1784 -91 
Q 1150 -91 751 415 
Q 353 922 353 1747 
Q 353 2572 751 3078 
Q 1150 3584 1784 3584 
Q 2172 3584 2448 3432 
Q 2725 3281 2906 2969 
z
M 947 1747 
Q 947 1113 1208 752 
Q 1469 391 1925 391 
Q 2381 391 2643 752 
Q 2906 1113 2906 1747 
Q 2906 2381 2643 2742 
Q 2381 3103 1925 3103 
Q 1469 3103 1208 2742 
Q 947 2381 947 1747 
z
" transform="scale(0.015625)"/>
      </defs>
      <use xlink:href="#DejaVuSans-75"/>
      <use xlink:href="#DejaVuSans-73" x="63.378906"/>
      <use xlink:href="#DejaVuSans-65" x="115.478516"/>
      <use xlink:href="#DejaVuSans-72" x="177.001953"/>
      <use xlink:href="#DejaVuSans-5f" x="218.115234"/>
      <use xlink:href="#DejaVuSans-69" x="268.115234"/>
      <use xlink:href="#DejaVuSans-64" x="295.898438"/>
     </g>
    </g>
    <g clip-path="url(#p986cc358d9)">
     <!-- age -->
     <g transform="translate(416.453815 266.285638) scale(0.08 -0.08)">
      <defs>
       <path id="DejaVuSans-61" d="M 2194 1759 
Q 1497 1759 1228 1600 
Q 959 1441 959 1056 
Q 959 750 1161 570 
Q 1363 391 1709 391 
Q 2188 391 2477 730 
Q 2766 1069 2766 1631 
L 2766 1759 
L 2194 1759 
z
M 3341 1997 
L 3341 0 
L 2766 0 
L 2766 531 
Q 2569 213 2275 61 
Q 1981 -91 1556 -91 
Q 1019 -91 701 211 
Q 384 513 384 1019 
Q 384 1609 779 1909 
Q 1175 2209 1959 2209 
L 2766 2209 
L 2766 2266 
Q 2766 2663 2505 2880 
Q 2244 3097 1772 3097 
Q 1472 3097 1187 3025 
Q 903 2953 641 2809 
L 641 3341 
Q 956 3463 1253 3523 
Q 1550 3584 1831 3584 
Q 2591 3584 2966 3190 
Q 3341 2797 3341 1997 
z
" transform="scale(0.015625)"/>
       <path id="DejaVuSans-67" d="M 2906 1791 
Q 2906 2416 2648 2759 
Q 2391 3103 1925 3103 
Q 1463 3103 1205 2759 
Q 947 2416 947 1791 
Q 947 1169 1205 825 
Q 1463 481 1925 481 
Q 2391 481 2648 825 
Q 2906 1169 2906 1791 
z
M 3481 434 
Q 3481 -459 3084 -895 
Q 2688 -1331 1869 -1331 
Q 1566 -1331 1297 -1286 
Q 1028 -1241 775 -1147 
L 775 -588 
Q 1028 -725 1275 -790 
Q 1522 -856 1778 -856 
Q 2344 -856 2625 -561 
Q 2906 -266 2906 331 
L 2906 616 
Q 2728 306 2450 153 
Q 2172 0 1784 0 
Q 1141 0 747 490 
Q 353 981 353 1791 
Q 353 2603 747 3093 
Q 1141 3584 1784 3584 
Q 2172 3584 2450 3431 
Q 2728 3278 2906 2969 
L 2906 3500 
L 3481 3500 
L 3481 434 
z
" transform="scale(0.015625)"/>
      </defs>
      <use xlink:href="#DejaVuSans-61"/>
      <use xlink:href="#DejaVuSans-67" x="61.279297"/>
      <use xlink:href="#DejaVuSans-65" x="124.755859"/>
     </g>
    </g>
    <g clip-path="url(#p986cc358d9)">
     <!-- gender -->
     <g transform="translate(409.725065 275.243888) scale(0.08 -0.08)">
      <defs>
       <path id="DejaVuSans-6e" d="M 3513 2113 
L 3513 0 
L 2938 0 
L 2938 2094 
Q 2938 2591 2744 2837 
Q 2550 3084 2163 3084 
Q 1697 3084 1428 2787 
Q 1159 2491 1159 1978 
L 1159 0 
L 581 0 
L 581 3500 
L 1159 3500 
L 1159 2956 
Q 1366 3272 1645 3428 
Q 1925 3584 2291 3584 
Q 2894 3584 3203 3211 
Q 3513 2838 3513 2113 
z
" transform="scale(0.015625)"/>
      </defs>
      <use xlink:href="#DejaVuSans-67"/>
      <use xlink:href="#DejaVuSans-65" x="63.476562"/>
      <use xlink:href="#DejaVuSans-6e" x="125"/>
      <use xlink:href="#DejaVuSans-64" x="188.378906"/>
      <use xlink:href="#DejaVuSans-65" x="251.855469"/>
      <use xlink:href="#DejaVuSans-72" x="313.378906"/>
     </g>
    </g>
    <g clip-path="url(#p986cc358d9)">
     <!-- condition -->
     <g transform="translate(405.411315 284.202138) scale(0.08 -0.08)">
      <defs>
       <path id="DejaVuSans-63" d="M 3122 3366 
L 3122 2828 
Q 2878 2963 2633 3030 
Q 2388 3097 2138 3097 
Q 1578 3097 1268 2742 
Q 959 2388 959 1747 
Q 959 1106 1268 751 
Q 1578 397 2138 397 
Q 2388 397 2633 464 
Q 2878 531 3122 666 
L 3122 134 
Q 2881 22 2623 -34 
Q 2366 -91 2075 -91 
Q 1284 -91 818 406 
Q 353 903 353 1747 
Q 353 2603 823 3093 
Q 1294 3584 2113 3584 
Q 2378 3584 2631 3529 
Q 2884 3475 3122 3366 
z
" transform="scale(0.015625)"/>
       <path id="DejaVuSans-6f" d="M 1959 3097 
Q 1497 3097 1228 2736 
Q 959 2375 959 1747 
Q 959 1119 1226 758 
Q 1494 397 1959 397 
Q 2419 397 2687 759 
Q 2956 1122 2956 1747 
Q 2956 2369 2687 2733 
Q 2419 3097 1959 3097 
z
M 1959 3584 
Q 2709 3584 3137 3096 
Q 3566 2609 3566 1747 
Q 3566 888 3137 398 
Q 2709 -91 1959 -91 
Q 1206 -91 779 398 
Q 353 888 353 1747 
Q 353 2609 779 3096 
Q 1206 3584 1959 3584 
z
" transform="scale(0.015625)"/>
       <path id="DejaVuSans-74" d="M 1172 4494 
L 1172 3500 
L 2356 3500 
L 2356 3053 
L 1172 3053 
L 1172 1153 
Q 1172 725 1289 603 
Q 1406 481 1766 481 
L 2356 481 
L 2356 0 
L 1766 0 
Q 1100 0 847 248 
Q 594 497 594 1153 
L 594 3053 
L 172 3053 
L 172 3500 
L 594 3500 
L 594 4494 
L 1172 4494 
z
" transform="scale(0.015625)"/>
      </defs>
      <use xlink:href="#DejaVuSans-63"/>
      <use xlink:href="#DejaVuSans-6f" x="54.980469"/>
      <use xlink:href="#DejaVuSans-6e" x="116.162109"/>
      <use xlink:href="#DejaVuSans-64" x="179.541016"/>
      <use xlink:href="#DejaVuSans-69" x="243.017578"/>
      <use xlink:href="#DejaVuSans-74" x="270.800781"/>
      <use xlink:href="#DejaVuSans-69" x="310.009766"/>
      <use xlink:href="#DejaVuSans-6f" x="337.792969"/>
      <use xlink:href="#DejaVuSans-6e" x="398.974609"/>
     </g>
    </g>
    <g clip-path="url(#p986cc358d9)">
     <!-- signup_date -->
     <g transform="translate(399.54194 293.160388) scale(0.08 -0.08)">
      <defs>
       <path id="DejaVuSans-70" d="M 1159 525 
L 1159 -1331 
L 581 -1331 
L 581 3500 
L 1159 3500 
L 1159 2969 
Q 1341 3281 1617 3432 
Q 1894 3584 2278 3584 
Q 2916 3584 3314 3078 
Q 3713 2572 3713 1747 
Q 3713 922 3314 415 
Q 2916 -91 2278 -91 
Q 1894 -91 1617 61 
Q 1341 213 1159 525 
z
M 3116 1747 
Q 3116 2381 2855 2742 
Q 2594 3103 2138 3103 
Q 1681 3103 1420 2742 
Q 1159 2381 1159 1747 
Q 1159 1113 1420 752 
Q 1681 391 2138 391 
Q 2594 391 2855 752 
Q 3116 1113 3116 1747 
z
" transform="scale(0.015625)"/>
      </defs>
      <use xlink:href="#DejaVuSans-73"/>
      <use xlink:href="#DejaVuSans-69" x="52.099609"/>
      <use xlink:href="#DejaVuSans-67" x="79.882812"/>
      <use xlink:href="#DejaVuSans-6e" x="143.359375"/>
      <use xlink:href="#DejaVuSans-75" x="206.738281"/>
      <use xlink:href="#DejaVuSans-70" x="270.117188"/>
      <use xlink:href="#DejaVuSans-5f" x="333.59375"/>
      <use xlink:href="#DejaVuSans-64" x="383.59375"/>
      <use xlink:href="#DejaVuSans-61" x="447.070312"/>
      <use xlink:href="#DejaVuSans-74" x="508.349609"/>
      <use xlink:href="#DejaVuSans-65" x="547.558594"/>
     </g>
    </g>
   </g>
   <g id="text_2">
    <g clip-path="url(#p986cc358d9)">
     <!-- daily_device_data -->
     <g transform="translate(744.368549 348.254282) scale(0.08 -0.08)">
      <defs>
       <path id="DejaVuSans-6c" d="M 603 4863 
L 1178 4863 
L 1178 0 
L 603 0 
L 603 4863 
z
" transform="scale(0.015625)"/>
       <path id="DejaVuSans-79" d="M 2059 -325 
Q 1816 -950 1584 -1140 
Q 1353 -1331 966 -1331 
L 506 -1331 
L 506 -850 
L 844 -850 
Q 1081 -850 1212 -737 
Q 1344 -625 1503 -206 
L 1606 56 
L 191 3500 
L 800 3500 
L 1894 763 
L 2988 3500 
L 3597 3500 
L 2059 -325 
z
" transform="scale(0.015625)"/>
       <path id="DejaVuSans-76" d="M 191 3500 
L 800 3500 
L 1894 563 
L 2988 3500 
L 3597 3500 
L 2284 0 
L 1503 0 
L 191 3500 
z
" transform="scale(0.015625)"/>
      </defs>
      <use xlink:href="#DejaVuSans-64"/>
      <use xlink:href="#DejaVuSans-61" x="63.476562"/>
      <use xlink:href="#DejaVuSans-69" x="124.755859"/>
      <use xlink:href="#DejaVuSans-6c" x="152.539062"/>
      <use xlink:href="#DejaVuSans-79" x="180.322266"/>
      <use xlink:href="#DejaVuSans-5f" x="239.501953"/>
      <use xlink:href="#DejaVuSans-64" x="289.501953"/>
      <use xlink:href="#DejaVuSans-65" x="352.978516"/>
      <use xlink:href="#DejaVuSans-76" x="414.501953"/>
      <use xlink:href="#DejaVuSans-69" x="473.681641"/>
      <use xlink:href="#DejaVuSans-63" x="501.464844"/>
      <use xlink:href="#DejaVuSans-65" x="556.445312"/>
      <use xlink:href="#DejaVuSans-5f" x="617.96875"/>
      <use xlink:href="#DejaVuSans-64" x="667.96875"/>
      <use xlink:href="#DejaVuSans-61" x="731.445312"/>
      <use xlink:href="#DejaVuSans-74" x="792.724609"/>
      <use xlink:href="#DejaVuSans-61" x="831.933594"/>
     </g>
    </g>
    <g clip-path="url(#p986cc358d9)">
     <!-- user_id -->
     <g transform="translate(765.724174 357.435032) scale(0.08 -0.08)">
      <use xlink:href="#DejaVuSans-75"/>
      <use xlink:href="#DejaVuSans-73" x="63.378906"/>
      <use xlink:href="#DejaVuSans-65" x="115.478516"/>
      <use xlink:href="#DejaVuSans-72" x="177.001953"/>
      <use xlink:href="#DejaVuSans-5f" x="218.115234"/>
      <use xlink:href="#DejaVuSans-69" x="268.115234"/>
      <use xlink:href="#DejaVuSans-64" x="295.898438"/>
     </g>
    </g>
    <g clip-path="url(#p986cc358d9)">
     <!-- date -->
     <g transform="translate(771.079174 366.615782) scale(0.08 -0.08)">
      <use xlink:href="#DejaVuSans-64"/>
      <use xlink:href="#DejaVuSans-61" x="63.476562"/>
      <use xlink:href="#DejaVuSans-74" x="124.755859"/>
      <use xlink:href="#DejaVuSans-65" x="163.964844"/>
     </g>
    </g>
    <g clip-path="url(#p986cc358d9)">
     <!-- steps -->
     <g transform="translate(769.362924 375.574032) scale(0.08 -0.08)">
      <use xlink:href="#DejaVuSans-73"/>
      <use xlink:href="#DejaVuSans-74" x="52.099609"/>
      <use xlink:href="#DejaVuSans-65" x="91.308594"/>
      <use xlink:href="#DejaVuSans-70" x="152.832031"/>
      <use xlink:href="#DejaVuSans-73" x="216.308594"/>
     </g>
    </g>
    <g clip-path="url(#p986cc358d9)">
     <!-- glucose -->
     <g transform="translate(764.721674 384.532282) scale(0.08 -0.08)">
      <use xlink:href="#DejaVuSans-67"/>
      <use xlink:href="#DejaVuSans-6c" x="63.476562"/>
      <use xlink:href="#DejaVuSans-75" x="91.259766"/>
      <use xlink:href="#DejaVuSans-63" x="154.638672"/>
      <use xlink:href="#DejaVuSans-6f" x="209.619141"/>
      <use xlink:href="#DejaVuSans-73" x="270.800781"/>
      <use xlink:href="#DejaVuSans-65" x="322.900391"/>
     </g>
    </g>
    <g clip-path="url(#p986cc358d9)">
     <!-- mood_score -->
     <g transform="translate(756.022299 393.490532) scale(0.08 -0.08)">
      <defs>
       <path id="DejaVuSans-6d" d="M 3328 2828 
Q 3544 3216 3844 3400 
Q 4144 3584 4550 3584 
Q 5097 3584 5394 3201 
Q 5691 2819 5691 2113 
L 5691 0 
L 5113 0 
L 5113 2094 
Q 5113 2597 4934 2840 
Q 4756 3084 4391 3084 
Q 3944 3084 3684 2787 
Q 3425 2491 3425 1978 
L 3425 0 
L 2847 0 
L 2847 2094 
Q 2847 2600 2669 2842 
Q 2491 3084 2119 3084 
Q 1678 3084 1418 2786 
Q 1159 2488 1159 1978 
L 1159 0 
L 581 0 
L 581 3500 
L 1159 3500 
L 1159 2956 
Q 1356 3278 1631 3431 
Q 1906 3584 2284 3584 
Q 2666 3584 2933 3390 
Q 3200 3197 3328 2828 
z
" transform="scale(0.015625)"/>
      </defs>
      <use xlink:href="#DejaVuSans-6d"/>
      <use xlink:href="#DejaVuSans-6f" x="97.412109"/>
      <use xlink:href="#DejaVuSans-6f" x="158.59375"/>
      <use xlink:href="#DejaVuSans-64" x="219.775391"/>
      <use xlink:href="#DejaVuSans-5f" x="283.251953"/>
      <use xlink:href="#DejaVuSans-73" x="333.251953"/>
      <use xlink:href="#DejaVuSans-63" x="385.351562"/>
      <use xlink:href="#DejaVuSans-6f" x="440.332031"/>
      <use xlink:href="#DejaVuSans-72" x="501.513672"/>
      <use xlink:href="#DejaVuSans-65" x="540.376953"/>
     </g>
    </g>
   </g>
   <g id="text_3">
    <g clip-path="url(#p986cc358d9)">
     <!-- clinical_sessions -->
     <g transform="translate(200.904734 496.235284) scale(0.08 -0.08)">
      <use xlink:href="#DejaVuSans-63"/>
      <use xlink:href="#DejaVuSans-6c" x="54.980469"/>
      <use xlink:href="#DejaVuSans-69" x="82.763672"/>
      <use xlink:href="#DejaVuSans-6e" x="110.546875"/>
      <use xlink:href="#DejaVuSans-69" x="173.925781"/>
      <use xlink:href="#DejaVuSans-63" x="201.708984"/>
      <use xlink:href="#DejaVuSans-61" x="256.689453"/>
      <use xlink:href="#DejaVuSans-6c" x="317.96875"/>
      <use xlink:href="#DejaVuSans-5f" x="345.751953"/>
      <use xlink:href="#DejaVuSans-73" x="395.751953"/>
      <use xlink:href="#DejaVuSans-65" x="447.851562"/>
      <use xlink:href="#DejaVuSans-73" x="509.375"/>
      <use xlink:href="#DejaVuSans-73" x="561.474609"/>
      <use xlink:href="#DejaVuSans-69" x="613.574219"/>
      <use xlink:href="#DejaVuSans-6f" x="641.357422"/>
      <use xlink:href="#DejaVuSans-6e" x="702.539062"/>
      <use xlink:href="#DejaVuSans-73" x="765.917969"/>
     </g>
    </g>
    <g clip-path="url(#p986cc358d9)">
     <!-- session_id -->
     <g transform="translate(213.167859 505.416034) scale(0.08 -0.08)">
      <use xlink:href="#DejaVuSans-73"/>
      <use xlink:href="#DejaVuSans-65" x="52.099609"/>
      <use xlink:href="#DejaVuSans-73" x="113.623047"/>
      <use xlink:href="#DejaVuSans-73" x="165.722656"/>
      <use xlink:href="#DejaVuSans-69" x="217.822266"/>
      <use xlink:href="#DejaVuSans-6f" x="245.605469"/>
      <use xlink:href="#DejaVuSans-6e" x="306.787109"/>
      <use xlink:href="#DejaVuSans-5f" x="370.166016"/>
      <use xlink:href="#DejaVuSans-69" x="420.166016"/>
      <use xlink:href="#DejaVuSans-64" x="447.949219"/>
     </g>
    </g>
    <g clip-path="url(#p986cc358d9)">
     <!-- user_id -->
     <g transform="translate(219.249734 514.596784) scale(0.08 -0.08)">
      <use xlink:href="#DejaVuSans-75"/>
      <use xlink:href="#DejaVuSans-73" x="63.378906"/>
      <use xlink:href="#DejaVuSans-65" x="115.478516"/>
      <use xlink:href="#DejaVuSans-72" x="177.001953"/>
      <use xlink:href="#DejaVuSans-5f" x="218.115234"/>
      <use xlink:href="#DejaVuSans-69" x="268.115234"/>
      <use xlink:href="#DejaVuSans-64" x="295.898438"/>
     </g>
    </g>
    <g clip-path="url(#p986cc358d9)">
     <!-- coach_id -->
     <g transform="translate(216.141609 523.777534) scale(0.08 -0.08)">
      <defs>
       <path id="DejaVuSans-68" d="M 3513 2113 
L 3513 0 
L 2938 0 
L 2938 2094 
Q 2938 2591 2744 2837 
Q 2550 3084 2163 3084 
Q 1697 3084 1428 2787 
Q 1159 2491 1159 1978 
L 1159 0 
L 581 0 
L 581 4863 
L 1159 4863 
L 1159 2956 
Q 1366 3272 1645 3428 
Q 1925 3584 2291 3584 
Q 2894 3584 3203 3211 
Q 3513 2838 3513 2113 
z
" transform="scale(0.015625)"/>
      </defs>
      <use xlink:href="#DejaVuSans-63"/>
      <use xlink:href="#DejaVuSans-6f" x="54.980469"/>
      <use xlink:href="#DejaVuSans-61" x="116.162109"/>
      <use xlink:href="#DejaVuSans-63" x="177.441406"/>
      <use xlink:href="#DejaVuSans-68" x="232.421875"/>
      <use xlink:href="#DejaVuSans-5f" x="295.800781"/>
      <use xlink:href="#DejaVuSans-69" x="345.800781"/>
      <use xlink:href="#DejaVuSans-64" x="373.583984"/>
     </g>
    </g>
    <g clip-path="url(#p986cc358d9)">
     <!-- session_date -->
     <g transform="translate(207.798484 532.958284) scale(0.08 -0.08)">
      <use xlink:href="#DejaVuSans-73"/>
      <use xlink:href="#DejaVuSans-65" x="52.099609"/>
      <use xlink:href="#DejaVuSans-73" x="113.623047"/>
      <use xlink:href="#DejaVuSans-73" x="165.722656"/>
      <use xlink:href="#DejaVuSans-69" x="217.822266"/>
      <use xlink:href="#DejaVuSans-6f" x="245.605469"/>
      <use xlink:href="#DejaVuSans-6e" x="306.787109"/>
      <use xlink:href="#DejaVuSans-5f" x="370.166016"/>
      <use xlink:href="#DejaVuSans-64" x="420.166016"/>
      <use xlink:href="#DejaVuSans-61" x="483.642578"/>
      <use xlink:href="#DejaVuSans-74" x="544.921875"/>
      <use xlink:href="#DejaVuSans-65" x="584.130859"/>
     </g>
    </g>
    <g clip-path="url(#p986cc358d9)">
     <!-- outcome_score -->
     <g transform="translate(203.323484 542.139034) scale(0.08 -0.08)">
      <use xlink:href="#DejaVuSans-6f"/>
      <use xlink:href="#DejaVuSans-75" x="61.181641"/>
      <use xlink:href="#DejaVuSans-74" x="124.560547"/>
      <use xlink:href="#DejaVuSans-63" x="163.769531"/>
      <use xlink:href="#DejaVuSans-6f" x="218.75"/>
      <use xlink:href="#DejaVuSans-6d" x="279.931641"/>
      <use xlink:href="#DejaVuSans-65" x="377.34375"/>
      <use xlink:href="#DejaVuSans-5f" x="438.867188"/>
      <use xlink:href="#DejaVuSans-73" x="488.867188"/>
      <use xlink:href="#DejaVuSans-63" x="540.966797"/>
      <use xlink:href="#DejaVuSans-6f" x="595.947266"/>
      <use xlink:href="#DejaVuSans-72" x="657.128906"/>
      <use xlink:href="#DejaVuSans-65" x="695.992188"/>
     </g>
    </g>
   </g>
   <g id="text_4">
    <g clip-path="url(#p986cc358d9)">
     <!-- ai_alerts -->
     <g transform="translate(67.018326 94.825299) scale(0.08 -0.08)">
      <use xlink:href="#DejaVuSans-61"/>
      <use xlink:href="#DejaVuSans-69" x="61.279297"/>
      <use xlink:href="#DejaVuSans-5f" x="89.0625"/>
      <use xlink:href="#DejaVuSans-61" x="139.0625"/>
      <use xlink:href="#DejaVuSans-6c" x="200.341797"/>
      <use xlink:href="#DejaVuSans-65" x="228.125"/>
      <use xlink:href="#DejaVuSans-72" x="289.648438"/>
      <use xlink:href="#DejaVuSans-74" x="330.761719"/>
      <use xlink:href="#DejaVuSans-73" x="369.970703"/>
     </g>
    </g>
    <g clip-path="url(#p986cc358d9)">
     <!-- alert_id -->
     <g transform="translate(69.013951 104.006049) scale(0.08 -0.08)">
      <use xlink:href="#DejaVuSans-61"/>
      <use xlink:href="#DejaVuSans-6c" x="61.279297"/>
      <use xlink:href="#DejaVuSans-65" x="89.0625"/>
      <use xlink:href="#DejaVuSans-72" x="150.585938"/>
      <use xlink:href="#DejaVuSans-74" x="191.699219"/>
      <use xlink:href="#DejaVuSans-5f" x="230.908203"/>
      <use xlink:href="#DejaVuSans-69" x="280.908203"/>
      <use xlink:href="#DejaVuSans-64" x="308.691406"/>
     </g>
    </g>
    <g clip-path="url(#p986cc358d9)">
     <!-- user_id -->
     <g transform="translate(69.525826 113.186799) scale(0.08 -0.08)">
      <use xlink:href="#DejaVuSans-75"/>
      <use xlink:href="#DejaVuSans-73" x="63.378906"/>
      <use xlink:href="#DejaVuSans-65" x="115.478516"/>
      <use xlink:href="#DejaVuSans-72" x="177.001953"/>
      <use xlink:href="#DejaVuSans-5f" x="218.115234"/>
      <use xlink:href="#DejaVuSans-69" x="268.115234"/>
      <use xlink:href="#DejaVuSans-64" x="295.898438"/>
     </g>
    </g>
    <g clip-path="url(#p986cc358d9)">
     <!-- alert_date -->
     <g transform="translate(63.644576 122.367549) scale(0.08 -0.08)">
      <use xlink:href="#DejaVuSans-61"/>
      <use xlink:href="#DejaVuSans-6c" x="61.279297"/>
      <use xlink:href="#DejaVuSans-65" x="89.0625"/>
      <use xlink:href="#DejaVuSans-72" x="150.585938"/>
      <use xlink:href="#DejaVuSans-74" x="191.699219"/>
      <use xlink:href="#DejaVuSans-5f" x="230.908203"/>
      <use xlink:href="#DejaVuSans-64" x="280.908203"/>
      <use xlink:href="#DejaVuSans-61" x="344.384766"/>
      <use xlink:href="#DejaVuSans-74" x="405.664062"/>
      <use xlink:href="#DejaVuSans-65" x="444.873047"/>
     </g>
    </g>
    <g clip-path="url(#p986cc358d9)">
     <!-- alert_type -->
     <g transform="translate(63.728326 131.548299) scale(0.08 -0.08)">
      <use xlink:href="#DejaVuSans-61"/>
      <use xlink:href="#DejaVuSans-6c" x="61.279297"/>
      <use xlink:href="#DejaVuSans-65" x="89.0625"/>
      <use xlink:href="#DejaVuSans-72" x="150.585938"/>
      <use xlink:href="#DejaVuSans-74" x="191.699219"/>
      <use xlink:href="#DejaVuSans-5f" x="230.908203"/>
      <use xlink:href="#DejaVuSans-74" x="280.908203"/>
      <use xlink:href="#DejaVuSans-79" x="320.117188"/>
      <use xlink:href="#DejaVuSans-70" x="379.296875"/>
      <use xlink:href="#DejaVuSans-65" x="442.773438"/>
     </g>
    </g>
    <g clip-path="url(#p986cc358d9)">
     <!-- resolved -->
     <g transform="translate(66.874576 140.729049) scale(0.08 -0.08)">
      <use xlink:href="#DejaVuSans-72"/>
      <use xlink:href="#DejaVuSans-65" x="38.863281"/>
      <use xlink:href="#DejaVuSans-73" x="100.386719"/>
      <use xlink:href="#DejaVuSans-6f" x="152.486328"/>
      <use xlink:href="#DejaVuSans-6c" x="213.667969"/>
      <use xlink:href="#DejaVuSans-76" x="241.451172"/>
      <use xlink:href="#DejaVuSans-65" x="300.630859"/>
      <use xlink:href="#DejaVuSans-64" x="362.154297"/>
     </g>
    </g>
   </g>
   <g id="text_5">
    <g clip-path="url(#p986cc358d9)">
     <!-- ml_engagement_training_data -->
     <g transform="translate(576.220591 38.164716) scale(0.08 -0.08)">
      <use xlink:href="#DejaVuSans-6d"/>
      <use xlink:href="#DejaVuSans-6c" x="97.412109"/>
      <use xlink:href="#DejaVuSans-5f" x="125.195312"/>
      <use xlink:href="#DejaVuSans-65" x="175.195312"/>
      <use xlink:href="#DejaVuSans-6e" x="236.71875"/>
      <use xlink:href="#DejaVuSans-67" x="300.097656"/>
      <use xlink:href="#DejaVuSans-61" x="363.574219"/>
      <use xlink:href="#DejaVuSans-67" x="424.853516"/>
      <use xlink:href="#DejaVuSans-65" x="488.330078"/>
      <use xlink:href="#DejaVuSans-6d" x="549.853516"/>
      <use xlink:href="#DejaVuSans-65" x="647.265625"/>
      <use xlink:href="#DejaVuSans-6e" x="708.789062"/>
      <use xlink:href="#DejaVuSans-74" x="772.167969"/>
      <use xlink:href="#DejaVuSans-5f" x="811.376953"/>
      <use xlink:href="#DejaVuSans-74" x="861.376953"/>
      <use xlink:href="#DejaVuSans-72" x="900.585938"/>
      <use xlink:href="#DejaVuSans-61" x="941.699219"/>
      <use xlink:href="#DejaVuSans-69" x="1002.978516"/>
      <use xlink:href="#DejaVuSans-6e" x="1030.761719"/>
      <use xlink:href="#DejaVuSans-69" x="1094.140625"/>
      <use xlink:href="#DejaVuSans-6e" x="1121.923828"/>
      <use xlink:href="#DejaVuSans-67" x="1185.302734"/>
      <use xlink:href="#DejaVuSans-5f" x="1248.779297"/>
      <use xlink:href="#DejaVuSans-64" x="1298.779297"/>
      <use xlink:href="#DejaVuSans-61" x="1362.255859"/>
      <use xlink:href="#DejaVuSans-74" x="1423.535156"/>
      <use xlink:href="#DejaVuSans-61" x="1462.744141"/>
     </g>
    </g>
    <g clip-path="url(#p986cc358d9)">
     <!-- user_id -->
     <g transform="translate(622.806841 47.345466) scale(0.08 -0.08)">
      <use xlink:href="#DejaVuSans-75"/>
      <use xlink:href="#DejaVuSans-73" x="63.378906"/>
      <use xlink:href="#DejaVuSans-65" x="115.478516"/>
      <use xlink:href="#DejaVuSans-72" x="177.001953"/>
      <use xlink:href="#DejaVuSans-5f" x="218.115234"/>
      <use xlink:href="#DejaVuSans-69" x="268.115234"/>
      <use xlink:href="#DejaVuSans-64" x="295.898438"/>
     </g>
    </g>
    <g clip-path="url(#p986cc358d9)">
     <!-- age -->
     <g transform="translate(629.729966 56.526216) scale(0.08 -0.08)">
      <use xlink:href="#DejaVuSans-61"/>
      <use xlink:href="#DejaVuSans-67" x="61.279297"/>
      <use xlink:href="#DejaVuSans-65" x="124.755859"/>
     </g>
    </g>
    <g clip-path="url(#p986cc358d9)">
     <!-- active_days -->
     <g transform="translate(613.581216 65.484466) scale(0.08 -0.08)">
      <use xlink:href="#DejaVuSans-61"/>
      <use xlink:href="#DejaVuSans-63" x="61.279297"/>
      <use xlink:href="#DejaVuSans-74" x="116.259766"/>
      <use xlink:href="#DejaVuSans-69" x="155.46875"/>
      <use xlink:href="#DejaVuSans-76" x="183.251953"/>
      <use xlink:href="#DejaVuSans-65" x="242.431641"/>
      <use xlink:href="#DejaVuSans-5f" x="303.955078"/>
      <use xlink:href="#DejaVuSans-64" x="353.955078"/>
      <use xlink:href="#DejaVuSans-61" x="417.431641"/>
      <use xlink:href="#DejaVuSans-79" x="478.710938"/>
      <use xlink:href="#DejaVuSans-73" x="537.890625"/>
     </g>
    </g>
    <g clip-path="url(#p986cc358d9)">
     <!-- avg_steps -->
     <g transform="translate(617.087466 74.665216) scale(0.08 -0.08)">
      <use xlink:href="#DejaVuSans-61"/>
      <use xlink:href="#DejaVuSans-76" x="61.279297"/>
      <use xlink:href="#DejaVuSans-67" x="120.458984"/>
      <use xlink:href="#DejaVuSans-5f" x="183.935547"/>
      <use xlink:href="#DejaVuSans-73" x="233.935547"/>
      <use xlink:href="#DejaVuSans-74" x="286.035156"/>
      <use xlink:href="#DejaVuSans-65" x="325.244141"/>
      <use xlink:href="#DejaVuSans-70" x="386.767578"/>
      <use xlink:href="#DejaVuSans-73" x="450.244141"/>
     </g>
    </g>
    <g clip-path="url(#p986cc358d9)">
     <!-- dropout_risk -->
     <g transform="translate(612.394966 83.845966) scale(0.08 -0.08)">
      <defs>
       <path id="DejaVuSans-6b" d="M 581 4863 
L 1159 4863 
L 1159 1991 
L 2875 3500 
L 3609 3500 
L 1753 1863 
L 3688 0 
L 2938 0 
L 1159 1709 
L 1159 0 
L 581 0 
L 581 4863 
z
" transform="scale(0.015625)"/>
      </defs>
      <use xlink:href="#DejaVuSans-64"/>
      <use xlink:href="#DejaVuSans-72" x="63.476562"/>
      <use xlink:href="#DejaVuSans-6f" x="102.339844"/>
      <use xlink:href="#DejaVuSans-70" x="163.521484"/>
      <use xlink:href="#DejaVuSans-6f" x="226.998047"/>
      <use xlink:href="#DejaVuSans-75" x="288.179688"/>
      <use xlink:href="#DejaVuSans-74" x="351.558594"/>
      <use xlink:href="#DejaVuSans-5f" x="390.767578"/>
      <use xlink:href="#DejaVuSans-72" x="440.767578"/>
      <use xlink:href="#DejaVuSans-69" x="481.880859"/>
      <use xlink:href="#DejaVuSans-73" x="509.664062"/>
      <use xlink:href="#DejaVuSans-6b" x="561.763672"/>
     </g>
    </g>
   </g>
  </g>
 </g>
 <defs>
  <clipPath id="p986cc358d9">
   <rect x="10.8" y="10.8" width="842.4" height="554.4"/>
  </clipPath>
 </defs>
</svg>
